<?xml version="1.0"?>
<svg xmlns="http://www.w3.org/2000/svg" xmlns:xlink="http://www.w3.org/1999/xlink" version="1.1" viewBox="0 0 224 224" width="50px" height="50px"><g fill="none" fill-rule="nonzero" stroke="none" stroke-width="1" stroke-linecap="butt" stroke-linejoin="miter" stroke-miterlimit="10" stroke-dasharray="" stroke-dashoffset="0" font-family="none" font-weight="none" font-size="none" text-anchor="none" style="mix-blend-mode: normal"><path d="M0,224v-224h224v224z" fill="none"/><g fill="#1abc9c"><path d="M53.76,13.44c-22.2208,0 -40.32,18.0992 -40.32,40.32v116.48c0,22.2208 18.0992,40.32 40.32,40.32h116.48c22.2208,0 40.32,-18.0992 40.32,-40.32v-116.48c0,-22.2208 -18.0992,-40.32 -40.32,-40.32zM170.24,35.84h13.44c2.464,0 4.48,2.016 4.48,4.48v13.44c0,2.464 -2.016,4.48 -4.48,4.48h-13.44c-2.464,0 -4.48,-2.016 -4.48,-4.48v-13.44c0,-2.464 2.016,-4.48 4.48,-4.48zM112,44.8c23.8784,0 44.8882,12.544 56.805,31.36h19.355v89.6c0,12.3648 -10.0352,22.4 -22.4,22.4h-107.52c-12.3648,0 -22.4,-10.0352 -22.4,-22.4v-89.6h19.355c11.9168,-18.816 32.9266,-31.36 56.805,-31.36zM112,53.76c-32.1216,0 -58.24,26.1184 -58.24,58.24c0,32.1216 26.1184,58.24 58.24,58.24c32.1216,0 58.24,-26.1184 58.24,-58.24c0,-32.1216 -26.1184,-58.24 -58.24,-58.24zM112,71.68c22.2208,0 40.32,18.0992 40.32,40.32c0,22.2208 -18.0992,40.32 -40.32,40.32c-22.2208,0 -40.32,-18.0992 -40.32,-40.32c0,-22.2208 18.0992,-40.32 40.32,-40.32z"/></g></g></svg>
