<?xml version="1.0"?>
<svg xmlns="http://www.w3.org/2000/svg" xmlns:xlink="http://www.w3.org/1999/xlink" version="1.1" viewBox="0 0 224 224" width="50px" height="50px"><g fill="none" fill-rule="nonzero" stroke="none" stroke-width="1" stroke-linecap="butt" stroke-linejoin="miter" stroke-miterlimit="10" stroke-dasharray="" stroke-dashoffset="0" font-family="none" font-weight="none" font-size="none" text-anchor="none" style="mix-blend-mode: normal"><path d="M0,224v-224h224v224z" fill="none"/><g fill="#1abc9c"><g id="surface1"><path d="M129.92,13.44c-9.4325,0 -20.4575,7.4025 -22.12,40.46c1.4,-0.035 2.7825,-0.14 4.2,-0.14c1.575,0 3.2025,0.0875 4.76,0.14c1.0675,-19.8625 5.7925,-31.5 13.16,-31.5c3.15,0 4.935,1.715 8.26,5.32c3.885,4.2175 8.96,9.695 18.9,11.76c-0.1575,-1.1725 -0.28,-2.4325 -0.28,-3.64c0,-1.89 0.1925,-3.675 0.56,-5.46c-6.16,-1.68 -9.415,-5.2325 -12.6,-8.68c-3.5525,-3.85 -7.63,-8.26 -14.84,-8.26zM183.68,17.92c-9.8875,0 -17.92,8.05 -17.92,17.92c0,9.87 8.0325,17.92 17.92,17.92c9.8875,0 17.92,-8.05 17.92,-17.92c0,-9.87 -8.0325,-17.92 -17.92,-17.92zM112,62.72c-54.355,0 -98.56,27.685 -98.56,67.2c0,39.515 44.205,71.68 98.56,71.68c54.355,0 98.56,-32.165 98.56,-71.68c0,-39.515 -44.205,-67.2 -98.56,-67.2zM33.6,66.92c-6.545,0 -12.7575,2.6775 -17.5,7.42c-7.7175,7.7175 -9.31,18.8125 -4.9,28c6.7725,-13.1075 18.4275,-24.29 33.46,-32.62c-3.4125,-1.7325 -7.1925,-2.8 -11.06,-2.8zM190.4,66.92c-3.8675,0 -7.6475,1.0675 -11.06,2.8c15.0325,8.33 26.6875,19.5125 33.46,32.62c4.41,-9.1875 2.8175,-20.2825 -4.9,-28c-4.7425,-4.7425 -10.955,-7.42 -17.5,-7.42zM76.16,103.04c7.42,0 13.44,6.02 13.44,13.44c0,7.42 -6.02,13.44 -13.44,13.44c-7.42,0 -13.44,-6.02 -13.44,-13.44c0,-7.42 6.02,-13.44 13.44,-13.44zM147.84,103.04c7.42,0 13.44,6.02 13.44,13.44c0,7.42 -6.02,13.44 -13.44,13.44c-7.42,0 -13.44,-6.02 -13.44,-13.44c0,-7.42 6.02,-13.44 13.44,-13.44zM71.96,152.32c1.12,0.1925 2.2225,0.8225 2.94,1.82c0.4725,0.665 10.9725,14.7 37.1,14.7c26.4775,0 36.995,-14.42 37.1,-14.56c1.4175,-2.0125 4.27,-2.555 6.3,-1.12c2.0125,1.4175 2.3975,4.13 0.98,6.16c-0.525,0.7525 -13.3,18.48 -44.38,18.48c-31.0975,0 -43.855,-17.7275 -44.38,-18.48c-1.4175,-2.03 -1.05,-4.7425 0.98,-6.16c1.015,-0.7175 2.24,-1.0325 3.36,-0.84z"/></g></g></g></svg>
